<svg version="1.1" viewBox="0.0 0.0 340.36482939632543 335.6036745406824" fill="none" stroke="none" stroke-linecap="square" stroke-miterlimit="10" xmlns:xlink="http://www.w3.org/1999/xlink" xmlns="http://www.w3.org/2000/svg"><clipPath id="p.0"><path d="m0 0l340.36484 0l0 335.60367l-340.36484 0l0 -335.60367z" clip-rule="nonzero"/></clipPath><g clip-path="url(#p.0)"><path fill="#000000" fill-opacity="0.0" d="m0 0l340.36484 0l0 335.60367l-340.36484 0z" fill-rule="evenodd"/><defs><radialGradient id="p.1" gradientUnits="userSpaceOnUse" gradientTransform="matrix(21.317108793093585 0.0 0.0 21.317108793093585 0.0 0.0)" spreadMethod="pad" cx="15.687619808511501" cy="0.22334899642608125" fx="15.687619808511501" fy="0.22334899642608125" r="21.317108154296875"><stop offset="0.0" stop-color="#9fc5e8"/><stop offset="1.0" stop-color="#073763"/></radialGradient></defs><path fill="url(#p.1)" d="m13.091864 165.42258l0 0c0 -88.73086 71.930565 -160.66142 160.66142 -160.66142l0 0c42.61006 0 83.47493 16.92678 113.60478 47.05664c30.129852 30.12986 47.05664 70.99472 47.05664 113.60478l0 0c0 88.73085 -71.93057 160.6614 -160.66142 160.6614l0 0c-88.73085 0 -160.66142 -71.93056 -160.66142 -160.6614z" fill-rule="evenodd"/><path stroke="#000000" stroke-width="8.0" stroke-linejoin="round" stroke-linecap="butt" d="m13.091864 165.42258l0 0c0 -88.73086 71.930565 -160.66142 160.66142 -160.66142l0 0c42.61006 0 83.47493 16.92678 113.60478 47.05664c30.129852 30.12986 47.05664 70.99472 47.05664 113.60478l0 0c0 88.73085 -71.93057 160.6614 -160.66142 160.6614l0 0c-88.73085 0 -160.66142 -71.93056 -160.66142 -160.6614z" fill-rule="evenodd"/><path fill="#000000" fill-opacity="0.0" d="m34.749344 80.71129l270.86615 0l0 149.82677l-270.86615 0z" fill-rule="evenodd"/><path fill="#ffffff" d="m78.562035 160.43317q6.796875 -5.4375 12.796875 -11.09375q6.015625 -5.671875 10.3125 -10.4375l19.046875 0q-6.34375 7.03125 -13.203125 13.78125q-6.859375 6.734375 -15.703125 14.328125q2.390625 2.9375 4.8125 6.796875q2.4375 3.84375 4.640625 8.046875q2.21875 4.1875 4.09375 8.5q1.875 4.296875 3.109375 8.15625l-18.8125 0q-1.015625 -2.953125 -2.546875 -6.453125q-1.53125 -3.515625 -3.40625 -6.96875q-1.859375 -3.46875 -3.90625 -6.75q-2.03125 -3.28125 -4.078125 -5.890625l-6.34375 26.0625l-16.765625 0l20.390625 -85.21875l17.5625 -2.71875l-12.0 49.859375zm51.327126 -18.8125q1.9375 -0.5625 4.140625 -1.296875q2.203125 -0.75 4.984375 -1.359375q2.78125 -0.625 6.234375 -1.015625q3.453125 -0.40625 7.984375 -0.40625q5.453125 0 9.015625 1.359375q3.5781403 1.359375 6.5156403 4.078125q4.1875 -2.375 8.328125 -3.90625q4.140625 -1.53125 9.6875 -1.53125q5.328125 0 9.125 1.421875q3.796875 1.40625 6.28125 4.078125q2.5 2.65625 3.625 6.34375q1.140625 3.6875 1.140625 8.09375q0 2.046875 -0.28125 4.3125q-0.28125 2.265625 -0.84375 4.53125l-7.703125 32.1875l-16.890625 0l7.484375 -31.5q0.328125 -1.59375 0.71875 -3.578125q0.40625 -1.984375 0.40625 -3.90625q0 -3.171875 -1.46875 -5.484375q-1.46875 -2.328125 -5.78125 -2.328125q-2.375 0 -4.53125 0.84375q-2.15625 0.84375 -3.859375 1.75q0.234375 0.90625 0.234375 1.703125q0 0.796875 0 1.46875q0 2.046875 -0.296875 4.3125q-0.28125 2.265625 -0.84375 4.53125l-7.703125 32.1875l-16.89064 0l7.484375 -31.5q0.34375 -1.59375 0.734375 -3.578125q0.40625 -1.984375 0.40625 -3.90625q0 -3.171875 -1.484375 -5.484375q-1.46875 -2.328125 -5.78125 -2.328125q-1.8125 0 -3.0625 0.171875q-1.234375 0.15625 -2.9375 0.5l-11.0 46.125l-16.874992 0l13.703117 -56.890625z" fill-rule="nonzero"/><path fill="#ffffff" d="m291.83862 159.07379q0 19.828125 -7.546875 30.4375q-7.53125 10.59375 -20.78125 10.59375q-13.265625 0 -20.796875 -10.59375q-7.53125 -10.609375 -7.53125 -30.4375q0 -9.859375 1.96875 -17.453125q1.984375 -7.59375 5.71875 -12.796875q3.75 -5.21875 8.953125 -7.9375q5.21875 -2.71875 11.6875 -2.71875q13.25 0 20.78125 10.59375q7.546875 10.59375 7.546875 30.3125zm-17.21875 0q0 -5.890625 -0.578125 -10.703125q-0.5625 -4.828125 -1.8125 -8.328125q-1.234375 -3.515625 -3.390625 -5.4375q-2.15625 -1.9375 -5.328125 -1.9375q-3.171875 0 -5.28125 1.9375q-2.09375 1.921875 -3.390625 5.4375q-1.296875 3.5 -1.875 8.328125q-0.5625 4.8125 -0.5625 10.703125q0 5.890625 0.5625 10.765625q0.578125 4.875 1.875 8.390625q1.296875 3.515625 3.390625 5.4375q2.109375 1.921875 5.28125 1.921875q3.171875 0 5.328125 -1.921875q2.15625 -1.921875 3.390625 -5.4375q1.25 -3.515625 1.8125 -8.390625q0.578125 -4.875 0.578125 -10.765625z" fill-rule="nonzero"/></g></svg>