<svg version="1.1" viewBox="0.0 0.0 340.36482939632543 335.6036745406824" fill="none" stroke="none" stroke-linecap="square" stroke-miterlimit="10" xmlns:xlink="http://www.w3.org/1999/xlink" xmlns="http://www.w3.org/2000/svg"><clipPath id="p.0"><path d="m0 0l340.36484 0l0 335.60367l-340.36484 0l0 -335.60367z" clip-rule="nonzero"/></clipPath><g clip-path="url(#p.0)"><path fill="#000000" fill-opacity="0.0" d="m0 0l340.36484 0l0 335.60367l-340.36484 0z" fill-rule="evenodd"/><defs><radialGradient id="p.1" gradientUnits="userSpaceOnUse" gradientTransform="matrix(21.317108793093585 0.0 0.0 21.317108793093585 0.0 0.0)" spreadMethod="pad" cx="15.687619808511501" cy="0.22334899642608125" fx="15.687619808511501" fy="0.22334899642608125" r="21.317108154296875"><stop offset="0.0" stop-color="#b6d7a8"/><stop offset="1.0" stop-color="#274e13"/></radialGradient></defs><path fill="url(#p.1)" d="m13.091864 165.42258l0 0c0 -88.73086 71.930565 -160.66142 160.66142 -160.66142l0 0c42.61006 0 83.47493 16.92678 113.60478 47.05664c30.129852 30.12986 47.05664 70.99472 47.05664 113.60478l0 0c0 88.73085 -71.93057 160.6614 -160.66142 160.6614l0 0c-88.73085 0 -160.66142 -71.93056 -160.66142 -160.6614z" fill-rule="evenodd"/><path stroke="#000000" stroke-width="8.0" stroke-linejoin="round" stroke-linecap="butt" d="m13.091864 165.42258l0 0c0 -88.73086 71.930565 -160.66142 160.66142 -160.66142l0 0c42.61006 0 83.47493 16.92678 113.60478 47.05664c30.129852 30.12986 47.05664 70.99472 47.05664 113.60478l0 0c0 88.73085 -71.93057 160.6614 -160.66142 160.6614l0 0c-88.73085 0 -160.66142 -71.93056 -160.66142 -160.6614z" fill-rule="evenodd"/><path fill="#ffffff" d="m108.7769 27.973753l129.95276 0l0 274.89764l-129.95276 0z" fill-rule="evenodd"/><path stroke="#ffffff" stroke-width="1.0" stroke-linejoin="round" stroke-linecap="butt" d="m108.7769 27.973753l129.95276 0l0 274.89764l-129.95276 0z" fill-rule="evenodd"/><path fill="#ffffff" d="m36.304462 230.39896l0 -129.95276l274.8976 0l0 129.95276z" fill-rule="evenodd"/><path stroke="#ffffff" stroke-width="1.0" stroke-linejoin="round" stroke-linecap="butt" d="m36.304462 230.39896l0 -129.95276l274.8976 0l0 129.95276z" fill-rule="evenodd"/></g></svg>