<svg version="1.1" viewBox="0.0 0.0 340.36482939632543 335.6036745406824" fill="none" stroke="none" stroke-linecap="square" stroke-miterlimit="10" xmlns:xlink="http://www.w3.org/1999/xlink" xmlns="http://www.w3.org/2000/svg"><clipPath id="p.0"><path d="m0 0l340.36484 0l0 335.60367l-340.36484 0l0 -335.60367z" clip-rule="nonzero"/></clipPath><g clip-path="url(#p.0)"><path fill="#000000" fill-opacity="0.0" d="m0 0l340.36484 0l0 335.60367l-340.36484 0z" fill-rule="evenodd"/><defs><radialGradient id="p.1" gradientUnits="userSpaceOnUse" gradientTransform="matrix(21.317108793093585 0.0 0.0 21.317108793093585 0.0 0.0)" spreadMethod="pad" cx="15.687619808511501" cy="0.22334899642608125" fx="15.687619808511501" fy="0.22334899642608125" r="21.317108154296875"><stop offset="0.0" stop-color="#b6d7a8"/><stop offset="1.0" stop-color="#274e13"/></radialGradient></defs><path fill="url(#p.1)" d="m13.091864 165.42258l0 0c0 -88.73086 71.930565 -160.66142 160.66142 -160.66142l0 0c42.61006 0 83.47493 16.92678 113.60478 47.05664c30.129852 30.12986 47.05664 70.99472 47.05664 113.60478l0 0c0 88.73085 -71.93057 160.6614 -160.66142 160.6614l0 0c-88.73085 0 -160.66142 -71.93056 -160.66142 -160.6614z" fill-rule="evenodd"/><path stroke="#000000" stroke-width="8.0" stroke-linejoin="round" stroke-linecap="butt" d="m13.091864 165.42258l0 0c0 -88.73086 71.930565 -160.66142 160.66142 -160.66142l0 0c42.61006 0 83.47493 16.92678 113.60478 47.05664c30.129852 30.12986 47.05664 70.99472 47.05664 113.60478l0 0c0 88.73085 -71.93057 160.6614 -160.66142 160.6614l0 0c-88.73085 0 -160.66142 -71.93056 -160.66142 -160.6614z" fill-rule="evenodd"/><path fill="#ffffff" d="m174.6378 40.779526l157.6378 125.49884l-157.6378 124.95784z" fill-rule="evenodd"/><path fill="#ffffff" d="m60.788734 59.175842l41.5748 0l0 41.95276l-41.5748 0z" fill-rule="evenodd"/><path stroke="#ffffff" stroke-width="4.0" stroke-linejoin="round" stroke-linecap="butt" d="m60.788734 59.175842l41.5748 0l0 41.95276l-41.5748 0z" fill-rule="evenodd"/><path fill="#ffffff" d="m60.788734 227.00542l41.5748 0l0 41.952744l-41.5748 0z" fill-rule="evenodd"/><path stroke="#ffffff" stroke-width="4.0" stroke-linejoin="round" stroke-linecap="butt" d="m60.788734 227.00542l41.5748 0l0 41.952744l-41.5748 0z" fill-rule="evenodd"/><path fill="#ffffff" d="m60.788734 143.09062l41.5748 0l0 41.95276l-41.5748 0z" fill-rule="evenodd"/><path stroke="#ffffff" stroke-width="4.0" stroke-linejoin="round" stroke-linecap="butt" d="m60.788734 143.09062l41.5748 0l0 41.95276l-41.5748 0z" fill-rule="evenodd"/><path fill="#ffffff" d="m107.169014 185.04802l41.574806 0l0 41.95276l-41.574806 0z" fill-rule="evenodd"/><path stroke="#ffffff" stroke-width="4.0" stroke-linejoin="round" stroke-linecap="butt" d="m107.169014 185.04802l41.574806 0l0 41.95276l-41.574806 0z" fill-rule="evenodd"/><path fill="#ffffff" d="m107.169014 101.13323l41.574806 0l0 41.95275l-41.574806 0z" fill-rule="evenodd"/><path stroke="#ffffff" stroke-width="4.0" stroke-linejoin="round" stroke-linecap="butt" d="m107.169014 101.13323l41.574806 0l0 41.95275l-41.574806 0z" fill-rule="evenodd"/><path fill="#ffffff" d="m153.5489 61.884514l21.102371 0l0 41.95276l-21.102371 0z" fill-rule="evenodd"/><path stroke="#ffffff" stroke-width="4.0" stroke-linejoin="round" stroke-linecap="butt" d="m153.5489 61.884514l21.102371 0l0 41.95276l-21.102371 0z" fill-rule="evenodd"/><path fill="#ffffff" d="m153.54929 229.71529l41.574814 0l0 41.952744l-41.574814 0z" fill-rule="evenodd"/><path stroke="#ffffff" stroke-width="4.0" stroke-linejoin="round" stroke-linecap="butt" d="m153.54929 229.71529l41.574814 0l0 41.952744l-41.574814 0z" fill-rule="evenodd"/><path fill="#ffffff" d="m153.54889 145.80052l21.102371 0l0 41.95276l-21.102371 0z" fill-rule="evenodd"/><path stroke="#ffffff" stroke-width="4.0" stroke-linejoin="round" stroke-linecap="butt" d="m153.54889 145.80052l21.102371 0l0 41.95276l-21.102371 0z" fill-rule="evenodd"/></g></svg>