<svg version="1.1" viewBox="0.0 0.0 340.36482939632543 335.6036745406824" fill="none" stroke="none" stroke-linecap="square" stroke-miterlimit="10" xmlns:xlink="http://www.w3.org/1999/xlink" xmlns="http://www.w3.org/2000/svg"><clipPath id="p.0"><path d="m0 0l340.36484 0l0 335.60367l-340.36484 0l0 -335.60367z" clip-rule="nonzero"/></clipPath><g clip-path="url(#p.0)"><path fill="#000000" fill-opacity="0.0" d="m0 0l340.36484 0l0 335.60367l-340.36484 0z" fill-rule="evenodd"/><path fill="#0b5394" d="m13.091864 165.42258l0 0c0 -88.73086 71.930565 -160.66142 160.66142 -160.66142l0 0c42.61006 0 83.47493 16.92678 113.60478 47.05664c30.129852 30.12986 47.05664 70.99472 47.05664 113.60478l0 0c0 88.73085 -71.93057 160.6614 -160.66142 160.6614l0 0c-88.73085 0 -160.66142 -71.93056 -160.66142 -160.6614z" fill-rule="evenodd"/><path stroke="#000000" stroke-width="8.0" stroke-linejoin="round" stroke-linecap="butt" d="m13.091864 165.42258l0 0c0 -88.73086 71.930565 -160.66142 160.66142 -160.66142l0 0c42.61006 0 83.47493 16.92678 113.60478 47.05664c30.129852 30.12986 47.05664 70.99472 47.05664 113.60478l0 0c0 88.73085 -71.93057 160.6614 -160.66142 160.6614l0 0c-88.73085 0 -160.66142 -71.93056 -160.66142 -160.6614z" fill-rule="evenodd"/><path fill="#ffffff" d="m79.86614 40.77951l252.40945 125.49884l-252.40945 124.957855z" fill-rule="evenodd"/></g></svg>